<svg height="506" viewBox="0 0 506 506" width="506" xmlns="http://www.w3.org/2000/svg"><path d="m84.62 392.45c-9.55 1.67-27.74 1.91-33.9.46-8.07-1.9-13.56-5.89-17.07-12.41-2.15-3.99-2.15-4.19-2.43-87.82-.3-88.82.24-106.36 3.45-111.86 2.94-5.03 10.09-10.06 31.33-22.03 10.72-6.05 19.95-11.34 20.5-11.76 1.02-.78 26.88-15.77 45-26.08 19.98-11.38 48.16-27.74 55-31.95 15.64-9.62 23.21-11.74 31.53-8.84 1.84.64 9.44 4.62 16.9 8.84s25.05 14.12 39.07 22 26.1 14.87 26.84 15.54c1.08.98.31 1.46-4 2.47-2.94.69-13.63 4.12-23.77 7.62-10.13 3.51-18.91 6.37-19.5 6.37s-10-5.18-20.92-11.5c-10.91-6.32-20.54-11.5-21.4-11.5-1.78 0-8.46 3.6-29.75 16.02-16.37 9.55-49.8 29.02-75 43.68-8.8 5.12-20.62 11.89-26.26 15.05l-10.25 5.74.25 78 .26 78.01 4.76.31c9.11.58 21.46-3.82 38.07-13.56 8.34-4.89 23.67-18.44 23.67-20.91 0-.77-1.37-4.11-3.05-7.43-5.55-11-5.9-23.2-.96-32.89 2.08-4.08 45.89-47.55 49.65-49.26 2.24-1.03 2.96-.61 8.76 5.14l6.31 6.25 8.39-7.84c18.72-17.46 21.3-19.92 24.13-20.26.46-.05.93-.05 1.48-.05h.19c3.34 0 4.18.51 6.62 4.02 2.58 3.74 2.7 4.31 1.6 7.98-.96 3.19-3.88 6.39-15.18 16.63-7.7 6.97-13.88 12.99-13.72 13.38.15.38 5.46 6.14 11.78 12.78l11.5 12.09 14.76-13.91c8.11-7.65 15.68-14.4 16.81-15.01 2.2-1.18 4.96.06 9.68 4.35 3.98 3.61 2.31 11.16-3.48 15.67-1.52 1.19-7.84 6.9-14.05 12.69l-11.27 10.53 6.52 6.92c3.59 3.8 6.53 7.25 6.53 7.66 0 1.04-24.01 24.58-32.5 31.87-9.09 7.8-16.96 13.52-22.45 16.33-3.85 1.96-5.55 2.19-13.48 1.83-10.12-.46-17.24-3.23-23.29-9.05-4.05-3.89-4.77-3.59-16.28 6.76-20.72 18.63-40.34 28.22-67.38 32.93zm138.01 92.94c-5.09 2.39-14.14 3.01-18.73 1.3-1.98-.74-5.58-2.49-8-3.88-6.39-3.68-82.8-48.87-103.04-60.95l-17.25-10.3 10.95-1.77c12.73-2.07 25.7-5.6 33.89-9.23l5.78-2.55 11.63 6.84c6.4 3.76 25.71 15.02 42.9 25.02l31.26 18.18 9.24-5.38c14.89-8.67 42.32-24.79 54.74-32.17 6.33-3.76 18.92-11.19 28-16.5 41.08-24.04 45.55-26.82 46.74-29.11.93-1.81 1.23-15.38 1.25-55.77l.01-53.38 3.97-9.12c4.53-10.4 15.27-37.77 21.31-54.31 2.25-6.16 4.43-10.99 4.84-10.74.4.25 2.23 6.64 4.06 14.19l3.32 13.74v83.5c0 65.77-.28 84.41-1.3 87.81-2.54 8.39-6.95 11.89-36.7 29.19-8.8 5.12-20.73 12.09-26.5 15.49-34.04 20.06-41.69 24.59-53 31.35-21.76 13.02-45.36 26.67-49.37 28.55zm101.42-202.14c-.66 2.06-1.56 3.75-1.99 3.75-.74 0-5.95-7.24-20.87-29-25.75-37.54-23.46-35.09-60.64-65-21.97-17.67-24.81-20-24.35-20 .47 0 20.61-6.07 35.3-10.64 7.61-2.36 20.97-6.4 67.5-20.36 11.27-3.38 29.27-8.81 40-12.07 20.07-6.1 22-6.55 22-5.06 0 1.81-16.18 47.74-26.81 76.13-12.18 32.5-28.26 76.39-30.14 82.25zm97.45-165.7c-6.05.96-12.31 1.97-13.91 2.24-2.54.42-2.81.24-2.14-1.4.42-1.04 2.01-5.49 3.54-9.89s3.96-11.11 5.41-14.9c1.44-3.8 2.51-7.02 2.36-7.17-.14-.14-6.51 3.55-14.15 8.2l-13.89 8.45.62-5.79c2.86-26.28 4.17-35.29 5.08-34.98.74.24 5.51 12.92 6.54 17.38.02.1 11.54-7.66 25.59-17.25 14.06-9.59 25.94-17.44 26.4-17.44.47 0-1.85 4.84-5.15 10.75-10.52 18.83-25.98 50.1-25.63 51.86.19 1.01 2.99 2.84 6.83 4.48 3.72 1.58 5.86 2.96 5 3.23-.83.26-6.45 1.26-12.5 2.23zm5.51 61.23c2.13 4.52 3.56 8.18 3.18 8.12-1.01-.14-15.48-6.42-24.49-10.62-8.3-3.88-8.38-4.53-.7-5.79 2.48-.41 5.58-1.15 6.9-1.65l2.39-.9-2.23-2.38-2.24-2.38 5.59-1.16c3.07-.64 5.59-1.55 5.59-2.02s-3.71-4.49-8.23-8.93c-4.53-4.44-7.57-8.06-6.75-8.06.81.01 6.88 1.13 13.48 2.49 48.12 9.93 58.82 12.31 57.5 12.8-.83.31-8.92 1.96-18 3.66-21.4 4.02-34.87 7.02-35.41 7.9-.24.39 1.3 4.4 3.42 8.92zm-93.47-87.67c-.27.77-.62 4.54-.77 8.39l-.27 7-8.19-15.48c-4.51-8.51-8.02-15.65-7.8-15.86.21-.22 3.6 1.46 7.53 3.72 3.92 2.27 7.48 4.12 7.91 4.12s1.07-2.59 1.43-5.75c2.19-19.2 7.04-51.25 7.77-51.25.47 0 .85.56.85 1.25 0 1.6 14 49.08 14.66 49.75.28.27 1.81-.96 3.41-2.75s3.1-3.25 3.35-3.25c.41 0-5.29 22.2-5.85 22.77-.15.14-2.86-3.12-6.03-7.25-3.16-4.14-6.12-7.52-6.57-7.52-.96 0-5.97 10.59-5.97 12.62 0 1.82-.94 1.74-3.15-.26-1.48-1.34-1.9-1.38-2.31-.25z" fill="#010101"/></svg>
